<?xml version="1.0" standalone="no"?><!DOCTYPE svg PUBLIC "-//W3C//DTD SVG 1.1//EN" "http://www.w3.org/Graphics/SVG/1.1/DTD/svg11.dtd"><svg xmlns="http://www.w3.org/2000/svg" viewBox="0 0 650 400" version="1.1"><clipPath id="box"><rect x="0" y="0" width="650" height="400" style="fill:none;stroke:none;" /></clipPath><g clip-path="url(#box)"><rect x="0.00" y="0.00" width="650.00" height="400.00" style="fill:#FFFFFF;stroke:none;" /><path d="M0.00 342.00 L650.00 342.00 M0.00 278.00 L650.00 278.00 M0.00 214.00 L650.00 214.00 M0.00 150.00 L650.00 150.00 M0.00 85.00 L650.00 85.00 M0.00 21.00 L650.00 21.00 M17.00 0.00 L17.00 400.00 M81.00 0.00 L81.00 400.00 M145.00 0.00 L145.00 400.00 M209.00 0.00 L209.00 400.00 M273.00 0.00 L273.00 400.00 M337.00 0.00 L337.00 400.00 M401.00 0.00 L401.00 400.00 M465.00 0.00 L465.00 400.00 M529.00 0.00 L529.00 400.00 M593.00 0.00 L593.00 400.00 " style="fill:none;stroke:#D0D0D0;stroke-width:1;" /><path d="M0.00 0.00 L0.00 400.00 " style="fill:none;stroke:#000000;stroke-width:1;" /><path d="M-6.50 406.00 L6.50 406.00 M-6.50 342.00 L6.50 342.00 M-6.50 278.00 L6.50 278.00 M-6.50 214.00 L6.50 214.00 M-6.50 150.00 L6.50 150.00 M-6.50 86.00 L6.50 86.00 M-6.50 22.00 L6.50 22.00 " style="fill:none;stroke:#000000;stroke-width:1;" /><path d="M0.00 214.00 L650.00 214.00 " style="fill:none;stroke:#000000;stroke-width:1;" /><path d="M-47.00 207.50 L-47.00 220.50 M17.00 207.50 L17.00 220.50 M81.00 207.50 L81.00 220.50 M145.00 207.50 L145.00 220.50 M209.00 207.50 L209.00 220.50 M273.00 207.50 L273.00 220.50 M337.00 207.50 L337.00 220.50 M401.00 207.50 L401.00 220.50 M465.00 207.50 L465.00 220.50 M529.00 207.50 L529.00 220.50 M593.00 207.50 L593.00 220.50 " style="fill:none;stroke:#000000;stroke-width:1;" /><text x="8.125" y="344.50000000000006" text-anchor="start" style="font:10px Droid Sans,Trebuchet MS,Arial,Helvetica,sans-serif;stroke:none;fill:#000000">-2</text><text x="8.125" y="280.5" text-anchor="start" style="font:10px Droid Sans,Trebuchet MS,Arial,Helvetica,sans-serif;stroke:none;fill:#000000">-1</text><text x="8.125" y="216.5" text-anchor="start" style="font:10px Droid Sans,Trebuchet MS,Arial,Helvetica,sans-serif;stroke:none;fill:#000000">0</text><text x="8.125" y="152.49999999999997" text-anchor="start" style="font:10px Droid Sans,Trebuchet MS,Arial,Helvetica,sans-serif;stroke:none;fill:#000000">1</text><text x="8.125" y="88.49999999999993" text-anchor="start" style="font:10px Droid Sans,Trebuchet MS,Arial,Helvetica,sans-serif;stroke:none;fill:#000000">2</text><text x="8.125" y="24.4999999999999" text-anchor="start" style="font:10px Droid Sans,Trebuchet MS,Arial,Helvetica,sans-serif;stroke:none;fill:#000000">3</text><text x="17.000000000000057" y="230.125" text-anchor="middle" style="font:10px Droid Sans,Trebuchet MS,Arial,Helvetica,sans-serif;stroke:none;fill:#000000">1</text><text x="81.00000000000011" y="230.125" text-anchor="middle" style="font:10px Droid Sans,Trebuchet MS,Arial,Helvetica,sans-serif;stroke:none;fill:#000000">2</text><text x="145.0000000000002" y="230.125" text-anchor="middle" style="font:10px Droid Sans,Trebuchet MS,Arial,Helvetica,sans-serif;stroke:none;fill:#000000">3</text><text x="209.00000000000023" y="230.125" text-anchor="middle" style="font:10px Droid Sans,Trebuchet MS,Arial,Helvetica,sans-serif;stroke:none;fill:#000000">4</text><text x="273.0000000000003" y="230.125" text-anchor="middle" style="font:10px Droid Sans,Trebuchet MS,Arial,Helvetica,sans-serif;stroke:none;fill:#000000">5</text><text x="337.00000000000034" y="230.125" text-anchor="middle" style="font:10px Droid Sans,Trebuchet MS,Arial,Helvetica,sans-serif;stroke:none;fill:#000000">6</text><text x="401.0000000000004" y="230.125" text-anchor="middle" style="font:10px Droid Sans,Trebuchet MS,Arial,Helvetica,sans-serif;stroke:none;fill:#000000">7</text><text x="465.00000000000045" y="230.125" text-anchor="middle" style="font:10px Droid Sans,Trebuchet MS,Arial,Helvetica,sans-serif;stroke:none;fill:#000000">8</text><text x="529.0000000000005" y="230.125" text-anchor="middle" style="font:10px Droid Sans,Trebuchet MS,Arial,Helvetica,sans-serif;stroke:none;fill:#000000">9</text><text x="593.0000000000006" y="230.125" text-anchor="middle" style="font:10px Droid Sans,Trebuchet MS,Arial,Helvetica,sans-serif;stroke:none;fill:#000000">10</text><path d="M-10.00 200.00 L-0.25 215.46 L0.75 215.47 L2.75 215.48 L4.75 215.49 L6.75 215.50 L8.75 215.51 L10.75 215.52 L12.75 215.54 L14.75 215.55 L16.75 215.56 L18.75 215.57 L20.75 215.58 L22.75 215.60 L24.75 215.61 L26.75 215.62 L28.75 215.63 L30.75 215.65 L32.75 215.66 L34.75 215.67 L36.75 215.69 L38.75 215.70 L40.75 215.72 L42.75 215.73 L44.75 215.75 L46.75 215.76 L48.75 215.78 L50.75 215.79 L52.75 215.81 L54.75 215.82 L56.75 215.84 L58.75 215.86 L60.75 215.87 L62.75 215.89 L64.75 215.91 L66.75 215.93 L68.75 215.94 L70.75 215.96 L72.75 215.98 L74.75 216.00 L76.75 216.02 L78.75 216.04 L80.75 216.06 L82.75 216.08 L84.75 216.10 L86.75 216.13 L88.75 216.15 L90.75 216.17 L92.75 216.19 L94.75 216.22 L96.75 216.24 L98.75 216.27 L100.75 216.29 L102.75 216.32 L104.75 216.35 L106.75 216.37 L108.75 216.40 L110.75 216.43 L112.75 216.46 L114.75 216.49 L116.75 216.52 L118.75 216.55 L120.75 216.58 L122.75 216.61 L124.75 216.65 L126.75 216.68 L128.75 216.72 L130.75 216.76 L132.75 216.79 L134.75 216.83 L136.75 216.87 L138.75 216.91 L140.75 216.95 L142.75 217.00 L144.75 217.04 L146.75 217.09 L148.75 217.14 L150.75 217.18 L152.75 217.23 L154.75 217.29 L156.75 217.34 L158.75 217.39 L160.75 217.45 L162.75 217.51 L164.75 217.57 L166.75 217.64 L168.75 217.70 L170.75 217.77 L172.75 217.84 L174.75 217.91 L176.75 217.99 L178.75 218.07 L180.75 218.15 L182.75 218.24 L184.75 218.33 L186.75 218.42 L188.75 218.52 L190.75 218.62 L192.75 218.73 L194.75 218.84 L196.75 218.96 L198.75 219.08 L200.75 219.21 L202.75 219.34 L204.75 219.49 L206.75 219.64 L208.75 219.80 L210.75 219.97 L212.75 220.15 L214.75 220.34 L216.75 220.54 L218.75 220.75 L220.75 220.98 L222.75 221.23 L224.75 221.50 L226.75 221.78 L228.75 222.09 L230.75 222.42 L232.75 222.78 L234.75 223.17 L236.75 223.60 L238.75 224.08 L240.75 224.60 L242.75 225.18 L244.75 225.82 L246.75 226.55 L248.75 227.36 L250.75 228.30 L252.75 229.37 L254.61 230.53 L256.23 231.68 L257.63 232.81 L258.86 233.94 L259.95 235.06 L260.93 236.17 L261.80 237.28 L262.60 238.38 L263.32 239.47 L263.98 240.56 L264.58 241.65 L265.14 242.73 L265.66 243.81 L266.14 244.88 L266.58 245.95 L267.00 247.02 L267.38 248.09 L267.75 249.16 L268.09 250.22 L268.41 251.28 L268.72 252.34 L269.00 253.39 L269.27 254.45 L269.53 255.50 L269.77 256.55 L270.01 257.60 L270.23 258.65 L270.44 259.70 L270.64 260.75 L270.83 261.79 L271.01 262.84 L271.19 263.88 L271.36 264.93 L271.52 265.97 L271.67 267.01 L271.82 268.05 L271.96 269.09 L272.10 270.13 L272.23 271.16 L272.36 272.20 L272.49 273.24 L272.60 274.27 L272.72 275.31 L272.83 276.34 L272.94 277.38 L273.04 278.41 L273.14 279.44 L273.24 280.47 L273.33 281.50 L273.42 282.54 L273.51 283.57 L273.60 284.60 L273.68 285.63 L273.76 286.66 L273.84 287.68 L273.92 288.71 L273.99 289.74 L274.06 290.77 L274.13 291.79 L274.20 292.82 L274.27 293.85 L274.34 294.87 L274.40 295.90 L274.46 296.93 L274.52 297.95 L274.58 298.97 L274.64 300.00 L274.69 301.02 L274.75 302.05 L274.80 303.07 L274.85 304.09 L274.90 305.12 L274.95 306.14 L275.00 307.16 L275.05 308.18 L275.10 309.21 L275.14 310.23 L275.19 311.25 L275.23 312.27 L275.27 313.29 L275.32 314.31 L275.36 315.33 L275.40 316.35 L275.44 317.37 L275.48 318.39 L275.51 319.41 L275.55 320.43 L275.59 321.45 L275.62 322.47 L275.66 323.49 L275.69 324.51 L275.73 325.53 L275.76 326.55 L275.79 327.56 L275.83 328.58 L275.86 329.60 L275.89 330.62 L275.92 331.64 L275.95 332.65 L275.98 333.67 L276.01 334.69 L276.03 335.70 L276.06 336.72 L276.09 337.74 L276.12 338.75 L276.14 339.77 L276.17 340.79 L276.20 341.80 L276.22 342.82 L276.25 343.84 L276.27 344.85 L276.29 345.87 L276.32 346.88 L276.34 347.90 L276.36 348.91 L276.39 349.93 L276.41 350.94 L276.43 351.96 L276.45 352.97 L276.47 353.99 L276.50 355.00 L276.52 356.02 L276.54 357.03 L276.56 358.05 L276.58 359.06 L276.60 360.07 L276.62 361.09 L276.63 362.10 L276.65 363.12 L276.67 364.13 L276.69 365.14 L276.71 366.16 L276.73 367.17 L276.74 368.18 L276.76 369.20 L276.78 370.21 L276.79 371.22 L276.81 372.24 L276.83 373.25 L276.84 374.26 L276.86 375.27 L276.88 376.29 L276.89 377.30 L276.91 378.31 L276.92 379.32 L276.94 380.34 L276.95 381.35 L276.97 382.36 L276.98 383.37 L277.00 384.38 L277.01 385.40 L277.02 386.41 L277.04 387.42 L277.05 388.43 L277.07 389.44 L277.08 390.46 L277.09 391.47 L277.11 392.48 L277.12 393.49 L277.13 394.50 L277.14 395.51 L277.16 396.52 L277.17 397.53 L277.18 398.55 L277.19 399.56 L277.20 400.57 M281.31 -0.05 L281.31 0.06 L281.32 1.05 L281.33 2.05 L281.34 3.04 L281.35 4.03 L281.36 5.02 L281.37 6.01 L281.38 7.00 L281.39 7.99 L281.40 8.98 L281.41 9.97 L281.42 10.96 L281.43 11.95 L281.44 12.94 L281.45 13.93 L281.46 14.92 L281.47 15.91 L281.48 16.90 L281.49 17.89 L281.50 18.88 L281.51 19.87 L281.52 20.86 L281.53 21.85 L281.54 22.84 L281.55 23.83 L281.57 24.82 L281.58 25.81 L281.59 26.80 L281.60 27.79 L281.61 28.78 L281.62 29.77 L281.64 30.76 L281.65 31.75 L281.66 32.73 L281.67 33.72 L281.68 34.71 L281.70 35.70 L281.71 36.69 L281.72 37.68 L281.74 38.67 L281.75 39.66 L281.76 40.65 L281.78 41.63 L281.79 42.62 L281.80 43.61 L281.82 44.60 L281.83 45.59 L281.85 46.58 L281.86 47.57 L281.88 48.55 L281.89 49.54 L281.91 50.53 L281.92 51.52 L281.94 52.51 L281.95 53.49 L281.97 54.48 L281.98 55.47 L282.00 56.46 L282.02 57.44 L282.03 58.43 L282.05 59.42 L282.07 60.41 L282.08 61.39 L282.10 62.38 L282.12 63.37 L282.14 64.35 L282.16 65.34 L282.17 66.33 L282.19 67.32 L282.21 68.30 L282.23 69.29 L282.25 70.27 L282.27 71.26 L282.29 72.25 L282.31 73.23 L282.33 74.22 L282.35 75.21 L282.37 76.19 L282.39 77.18 L282.42 78.16 L282.44 79.15 L282.46 80.13 L282.48 81.12 L282.51 82.10 L282.53 83.09 L282.55 84.07 L282.58 85.06 L282.60 86.04 L282.63 87.03 L282.65 88.01 L282.68 89.00 L282.70 89.98 L282.73 90.97 L282.76 91.95 L282.78 92.94 L282.81 93.92 L282.84 94.90 L282.87 95.89 L282.90 96.87 L282.93 97.85 L282.96 98.84 L282.99 99.82 L283.02 100.80 L283.05 101.79 L283.08 102.77 L283.12 103.75 L283.15 104.73 L283.18 105.72 L283.22 106.70 L283.25 107.68 L283.29 108.66 L283.32 109.64 L283.36 110.62 L283.40 111.60 L283.44 112.59 L283.48 113.57 L283.52 114.55 L283.56 115.53 L283.60 116.51 L283.64 117.49 L283.69 118.47 L283.73 119.45 L283.78 120.43 L283.82 121.41 L283.87 122.39 L283.92 123.36 L283.97 124.34 L284.02 125.32 L284.07 126.30 L284.12 127.28 L284.18 128.26 L284.23 129.23 L284.29 130.21 L284.35 131.19 L284.41 132.16 L284.47 133.14 L284.53 134.12 L284.59 135.09 L284.66 136.07 L284.72 137.04 L284.79 138.02 L284.86 138.99 L284.93 139.97 L285.01 140.94 L285.08 141.91 L285.16 142.89 L285.24 143.86 L285.32 144.83 L285.41 145.81 L285.49 146.78 L285.58 147.75 L285.67 148.72 L285.77 149.69 L285.87 150.66 L285.97 151.63 L286.07 152.60 L286.18 153.57 L286.29 154.54 L286.40 155.51 L286.52 156.47 L286.64 157.44 L286.77 158.41 L286.90 159.37 L287.03 160.34 L287.17 161.30 L287.32 162.27 L287.47 163.23 L287.62 164.19 L287.79 165.15 L287.95 166.12 L288.13 167.08 L288.31 168.04 L288.50 169.00 L288.70 169.95 L288.91 170.91 L289.12 171.87 L289.35 172.82 L289.58 173.78 L289.83 174.73 L290.09 175.68 L290.36 176.64 L290.65 177.59 L290.95 178.54 L291.27 179.48 L291.60 180.43 L291.95 181.38 L292.33 182.32 L292.73 183.26 L293.15 184.20 L293.59 185.14 L294.07 186.08 L294.58 187.01 L295.12 187.95 L295.70 188.88 L296.33 189.81 L297.00 190.73 L297.73 191.66 L298.52 192.58 L299.37 193.49 L300.31 194.41 L301.33 195.32 L302.45 196.23 L303.68 197.13 L305.04 198.03 L306.56 198.92 L308.27 199.81 L310.18 200.69 L312.18 201.50 L314.18 202.22 L316.18 202.86 L318.18 203.44 L320.18 203.96 L322.18 204.43 L324.18 204.85 L326.18 205.24 L328.18 205.60 L330.18 205.93 L332.18 206.24 L334.18 206.52 L336.18 206.79 L338.18 207.03 L340.18 207.26 L342.18 207.48 L344.18 207.68 L346.18 207.87 L348.18 208.04 L350.18 208.21 L352.18 208.37 L354.18 208.52 L356.18 208.67 L358.18 208.80 L360.18 208.93 L362.18 209.05 L364.18 209.17 L366.18 209.28 L368.18 209.39 L370.18 209.49 L372.18 209.59 L374.18 209.68 L376.18 209.77 L378.18 209.85 L380.18 209.94 L382.18 210.01 L384.18 210.09 L386.18 210.16 L388.18 210.23 L390.18 210.30 L392.18 210.37 L394.18 210.43 L396.18 210.49 L398.18 210.55 L400.18 210.61 L402.18 210.66 L404.18 210.72 L406.18 210.77 L408.18 210.82 L410.18 210.87 L412.18 210.92 L414.18 210.96 L416.18 211.01 L418.18 211.05 L420.18 211.09 L422.18 211.13 L424.18 211.17 L426.18 211.21 L428.18 211.25 L430.18 211.28 L432.18 211.32 L434.18 211.35 L436.18 211.39 L438.18 211.42 L440.18 211.45 L442.18 211.48 L444.18 211.51 L446.18 211.54 L448.18 211.57 L450.18 211.60 L452.18 211.63 L454.18 211.66 L456.18 211.68 L458.18 211.71 L460.18 211.73 L462.18 211.76 L464.18 211.78 L466.18 211.81 L468.18 211.83 L470.18 211.85 L472.18 211.88 L474.18 211.90 L476.18 211.92 L478.18 211.94 L480.18 211.96 L482.18 211.98 L484.18 212.00 L486.18 212.02 L488.18 212.04 L490.18 212.06 L492.18 212.08 L494.18 212.09 L496.18 212.11 L498.18 212.13 L500.18 212.14 L502.18 212.16 L504.18 212.18 L506.18 212.19 L508.18 212.21 L510.18 212.23 L512.18 212.24 L514.18 212.26 L516.18 212.27 L518.18 212.28 L520.18 212.30 L522.18 212.31 L524.18 212.33 L526.18 212.34 L528.18 212.35 L530.18 212.37 L532.18 212.38 L534.18 212.39 L536.18 212.40 L538.18 212.42 L540.18 212.43 L542.18 212.44 L544.18 212.45 L546.18 212.46 L548.18 212.48 L550.18 212.49 L552.18 212.50 L554.18 212.51 L556.18 212.52 L558.18 212.53 L560.18 212.54 L562.18 212.55 L564.18 212.56 L566.18 212.57 L568.18 212.58 L570.18 212.59 L572.18 212.60 L574.18 212.61 L576.18 212.62 L578.18 212.63 L580.18 212.64 L582.18 212.65 L584.18 212.66 L586.18 212.66 L588.18 212.67 L590.18 212.68 L592.18 212.69 L594.18 212.70 L596.18 212.71 L598.18 212.72 L600.18 212.72 L602.18 212.73 L604.18 212.74 L606.18 212.75 L608.18 212.75 L610.18 212.76 L612.18 212.77 L614.18 212.78 L616.18 212.78 L618.18 212.79 L620.18 212.80 L622.18 212.81 L624.18 212.81 L626.18 212.82 L628.18 212.83 L630.18 212.83 L632.18 212.84 L634.18 212.85 L636.18 212.85 L638.18 212.86 L640.18 212.86 L642.18 212.87 L644.18 212.88 L646.18 212.88 L648.18 212.89 " style="fill:none;stroke:#000000;stroke-width:1;" /></g></svg>